<svg xmlns="http://www.w3.org/2000/svg" width="900" height="40" viewBox="0 0 900 40" shape-rendering="crispEdges"><style>
.a,.b,.c{animation-timing-function:steps(4,end);animation-iteration-count:infinite}
.a{animation-name:tw;animation-duration:2.4s}
.b{animation-name:tw;animation-duration:3.6s}
.c{animation-name:tw2;animation-duration:5s}
@keyframes tw{0%,100%{opacity:.2}50%{opacity:1}}
@keyframes tw2{0%,100%{opacity:1}50%{opacity:.15}}
.bl{animation:blink 1s steps(1) infinite}
@keyframes blink{0%,49%{opacity:1}50%,100%{opacity:0}}
.march{animation:march 1s steps(2) infinite}
@keyframes march{to{stroke-dashoffset:-16}}
.ty{opacity:0;animation:show .01s forwards}
@keyframes show{to{opacity:1}}
.chip{animation:pulse 4s steps(3) infinite}
@keyframes pulse{0%,100%{opacity:.5}50%{opacity:1}}
.shoot{opacity:0;animation:shoot 8s linear infinite}
@keyframes shoot{0%{transform:translate(0,0);opacity:0}2%{opacity:1}11%{transform:translate(240px,120px);opacity:0}100%{transform:translate(240px,120px);opacity:0}}
.fly{animation:fly 14s steps(70) infinite}
@keyframes fly{from{transform:translateX(-40px)}to{transform:translateX(940px)}}
.fl{animation:blink .3s steps(1) infinite}
@media (prefers-reduced-motion:reduce){*{animation:none!important}.ty{opacity:1}}
</style><rect width="900" height="40" fill="#000"/><g class="b" fill="#fff" style="animation-delay:-3.81s"><rect x="374" y="26" width="2" height="2"/><rect x="368" y="26" width="6" height="2"/><rect x="376" y="26" width="6" height="2"/><rect x="374" y="20" width="2" height="6"/><rect x="374" y="28" width="2" height="6"/></g><g class="a" fill="#fff" style="animation-delay:-0.1s"><rect x="338" y="18" width="2" height="2"/><rect x="334" y="18" width="4" height="2"/><rect x="340" y="18" width="4" height="2"/><rect x="338" y="14" width="2" height="4"/><rect x="338" y="20" width="2" height="4"/></g><g class="a" fill="#fff" style="animation-delay:-3.12s"><rect x="26" y="26" width="2" height="2"/><rect x="22" y="26" width="4" height="2"/><rect x="28" y="26" width="4" height="2"/><rect x="26" y="22" width="2" height="4"/><rect x="26" y="28" width="2" height="4"/></g><g class="c" fill="#fff" style="animation-delay:-1.04s"><rect x="318" y="26" width="2" height="2"/><rect x="316" y="26" width="2" height="2"/><rect x="320" y="26" width="2" height="2"/><rect x="318" y="24" width="2" height="2"/><rect x="318" y="28" width="2" height="2"/></g><g class="c" fill="#fff" style="animation-delay:-0.66s"><rect x="748" y="26" width="2" height="2"/><rect x="746" y="26" width="2" height="2"/><rect x="750" y="26" width="2" height="2"/><rect x="748" y="24" width="2" height="2"/><rect x="748" y="28" width="2" height="2"/></g><g class="b" fill="#fff" style="animation-delay:-4.88s"><rect x="694" y="18" width="2" height="2"/><rect x="692" y="18" width="2" height="2"/><rect x="696" y="18" width="2" height="2"/><rect x="694" y="16" width="2" height="2"/><rect x="694" y="20" width="2" height="2"/></g><g class="b" fill="#fff" style="animation-delay:-2.29s"><rect x="708" y="14" width="2" height="2"/><rect x="704" y="14" width="4" height="2"/><rect x="710" y="14" width="4" height="2"/><rect x="708" y="10" width="2" height="4"/><rect x="708" y="16" width="2" height="4"/></g><g class="c" fill="#fff" style="animation-delay:-1.6s"><rect x="784" y="26" width="4" height="4"/><rect x="780" y="26" width="4" height="4"/><rect x="788" y="26" width="4" height="4"/><rect x="784" y="22" width="4" height="4"/><rect x="784" y="30" width="4" height="4"/></g><g class="b" fill="#fff" style="animation-delay:-1.71s"><rect x="594" y="10" width="2" height="2"/><rect x="592" y="10" width="2" height="2"/><rect x="596" y="10" width="2" height="2"/><rect x="594" y="8" width="2" height="2"/><rect x="594" y="12" width="2" height="2"/></g><g class="c" fill="#fff" style="animation-delay:-2.33s"><rect x="24" y="10" width="4" height="4"/></g><g class="c" fill="#fff" style="animation-delay:-1.0s"><rect x="650" y="28" width="3" height="3"/><rect x="641" y="28" width="9" height="3"/><rect x="653" y="28" width="9" height="3"/><rect x="650" y="19" width="3" height="9"/><rect x="650" y="31" width="3" height="9"/></g><g class="a" fill="#fff" style="animation-delay:-4.44s"><rect x="140" y="26" width="2" height="2"/><rect x="138" y="26" width="2" height="2"/><rect x="142" y="26" width="2" height="2"/><rect x="140" y="24" width="2" height="2"/><rect x="140" y="28" width="2" height="2"/></g><g class="b" fill="#fff" style="animation-delay:-2.78s"><rect x="656" y="16" width="2" height="2"/><rect x="654" y="16" width="2" height="2"/><rect x="658" y="16" width="2" height="2"/><rect x="656" y="14" width="2" height="2"/><rect x="656" y="18" width="2" height="2"/></g><g class="b" fill="#fff" style="animation-delay:-3.61s"><rect x="782" y="18" width="2" height="2"/><rect x="780" y="18" width="2" height="2"/><rect x="784" y="18" width="2" height="2"/><rect x="782" y="16" width="2" height="2"/><rect x="782" y="20" width="2" height="2"/></g><g class="a" fill="#fff" style="animation-delay:-4.2s"><rect x="444" y="24" width="4" height="4"/><rect x="440" y="24" width="4" height="4"/><rect x="448" y="24" width="4" height="4"/><rect x="444" y="20" width="4" height="4"/><rect x="444" y="28" width="4" height="4"/></g><g class="c" fill="#fff" style="animation-delay:-1.88s"><rect x="860" y="24" width="4" height="4"/></g><g class="a" fill="#fff" style="animation-delay:-2.81s"><rect x="860" y="16" width="2" height="2"/><rect x="854" y="16" width="6" height="2"/><rect x="862" y="16" width="6" height="2"/><rect x="860" y="10" width="2" height="6"/><rect x="860" y="18" width="2" height="6"/></g><g class="c" fill="#fff" style="animation-delay:-1.68s"><rect x="258" y="18" width="3" height="3"/><rect x="255" y="18" width="3" height="3"/><rect x="261" y="18" width="3" height="3"/><rect x="258" y="15" width="3" height="3"/><rect x="258" y="21" width="3" height="3"/></g><g class="b" fill="#fff" style="animation-delay:-1.96s"><rect x="316" y="16" width="4" height="4"/></g><g class="b" fill="#fff" style="animation-delay:-3.11s"><rect x="350" y="10" width="2" height="2"/><rect x="346" y="10" width="4" height="2"/><rect x="352" y="10" width="4" height="2"/><rect x="350" y="6" width="2" height="4"/><rect x="350" y="12" width="2" height="4"/></g><g class="a" fill="#fff" style="animation-delay:-3.78s"><rect x="376" y="14" width="4" height="4"/><rect x="364" y="14" width="12" height="4"/><rect x="380" y="14" width="12" height="4"/><rect x="376" y="2" width="4" height="12"/><rect x="376" y="18" width="4" height="12"/></g><g class="c" fill="#fff" style="animation-delay:-2.61s"><rect x="696" y="22" width="2" height="2"/><rect x="692" y="22" width="4" height="2"/><rect x="698" y="22" width="4" height="2"/><rect x="696" y="18" width="2" height="4"/><rect x="696" y="24" width="2" height="4"/></g><g class="b" fill="#fff" style="animation-delay:-1.47s"><rect x="112" y="14" width="4" height="4"/><rect x="100" y="14" width="12" height="4"/><rect x="116" y="14" width="12" height="4"/><rect x="112" y="2" width="4" height="12"/><rect x="112" y="18" width="4" height="12"/></g><g class="a" fill="#fff" style="animation-delay:-3.05s"><rect x="90" y="20" width="2" height="2"/><rect x="88" y="20" width="2" height="2"/><rect x="92" y="20" width="2" height="2"/><rect x="90" y="18" width="2" height="2"/><rect x="90" y="22" width="2" height="2"/></g><g class="c" fill="#fff" style="animation-delay:-3.32s"><rect x="804" y="12" width="4" height="4"/><rect x="800" y="12" width="4" height="4"/><rect x="808" y="12" width="4" height="4"/><rect x="804" y="8" width="4" height="4"/><rect x="804" y="16" width="4" height="4"/></g><g class="b" fill="#fff" style="animation-delay:-1.43s"><rect x="60" y="12" width="2" height="2"/><rect x="58" y="12" width="2" height="2"/><rect x="62" y="12" width="2" height="2"/><rect x="60" y="10" width="2" height="2"/><rect x="60" y="14" width="2" height="2"/></g><g class="a" fill="#fff" style="animation-delay:-4.38s"><rect x="712" y="28" width="2" height="2"/></g><g class="b" fill="#fff" style="animation-delay:-2.34s"><rect x="18" y="10" width="2" height="2"/><rect x="14" y="10" width="4" height="2"/><rect x="20" y="10" width="4" height="2"/><rect x="18" y="6" width="2" height="4"/><rect x="18" y="12" width="2" height="4"/></g><g class="b" fill="#fff" style="animation-delay:-2.95s"><rect x="690" y="10" width="2" height="2"/><rect x="688" y="10" width="2" height="2"/><rect x="692" y="10" width="2" height="2"/><rect x="690" y="8" width="2" height="2"/><rect x="690" y="12" width="2" height="2"/></g><g class="a" fill="#fff" style="animation-delay:-1.35s"><rect x="570" y="22" width="3" height="3"/></g><g class="a" fill="#fff" style="animation-delay:-3.69s"><rect x="240" y="20" width="3" height="3"/></g><g class="b" fill="#fff" style="animation-delay:-4.12s"><rect x="310" y="16" width="3" height="3"/></g><g class="b" fill="#fff" style="animation-delay:-3.87s"><rect x="10" y="10" width="2" height="2"/><rect x="8" y="10" width="2" height="2"/><rect x="12" y="10" width="2" height="2"/><rect x="10" y="8" width="2" height="2"/><rect x="10" y="12" width="2" height="2"/></g><g class="a" fill="#fff" style="animation-delay:-3.98s"><rect x="242" y="26" width="2" height="2"/><rect x="240" y="26" width="2" height="2"/><rect x="244" y="26" width="2" height="2"/><rect x="242" y="24" width="2" height="2"/><rect x="242" y="28" width="2" height="2"/></g><g class="shoot" style="animation-delay:0s"><rect x="40" y="6" width="2" height="2" fill="#fff" opacity="1.0"/><rect x="36" y="4" width="2" height="2" fill="#fff" opacity="0.89"/><rect x="32" y="2" width="2" height="2" fill="#fff" opacity="0.78"/><rect x="28" y="0" width="2" height="2" fill="#fff" opacity="0.67"/><rect x="24" y="-2" width="2" height="2" fill="#fff" opacity="0.56"/><rect x="20" y="-4" width="2" height="2" fill="#fff" opacity="0.45"/><rect x="16" y="-6" width="2" height="2" fill="#fff" opacity="0.34"/><rect x="12" y="-8" width="2" height="2" fill="#fff" opacity="0.23"/><rect x="8" y="-10" width="2" height="2" fill="#fff" opacity="0.12"/></g></svg>