<svg xmlns="http://www.w3.org/2000/svg" width="900" height="56" viewBox="0 0 900 56" shape-rendering="crispEdges"><style>
.a,.b,.c{animation-timing-function:steps(4,end);animation-iteration-count:infinite}
.a{animation-name:tw;animation-duration:2.4s}
.b{animation-name:tw;animation-duration:3.6s}
.c{animation-name:tw2;animation-duration:5s}
@keyframes tw{0%,100%{opacity:.2}50%{opacity:1}}
@keyframes tw2{0%,100%{opacity:1}50%{opacity:.15}}
.bl{animation:blink 1s steps(1) infinite}
@keyframes blink{0%,49%{opacity:1}50%,100%{opacity:0}}
.march{animation:march 1s steps(2) infinite}
@keyframes march{to{stroke-dashoffset:-16}}
.ty{opacity:0;animation:show .01s forwards}
@keyframes show{to{opacity:1}}
.chip{animation:pulse 4s steps(3) infinite}
@keyframes pulse{0%,100%{opacity:.5}50%{opacity:1}}
.shoot{opacity:0;animation:shoot 8s linear infinite}
@keyframes shoot{0%{transform:translate(0,0);opacity:0}2%{opacity:1}11%{transform:translate(240px,120px);opacity:0}100%{transform:translate(240px,120px);opacity:0}}
.fly{animation:fly 14s steps(70) infinite}
@keyframes fly{from{transform:translateX(-40px)}to{transform:translateX(940px)}}
.fl{animation:blink .3s steps(1) infinite}
.df{animation:df 1.2s steps(1) infinite}
@keyframes df{0%,49%{opacity:.08}50%,100%{opacity:.5}}
.bump{animation:bump 1.2s steps(2) infinite;transform-box:fill-box;transform-origin:center}
@keyframes bump{0%,100%{transform:translateY(0)}50%{transform:translateY(-4px)}}
@media (prefers-reduced-motion:reduce){*{animation:none!important}.ty{opacity:1}}
</style><rect width="900" height="56" fill="#000"/><g class="b" fill="#fff" style="animation-delay:-2.28s"><rect x="492" y="34" width="2" height="2"/><rect x="488" y="34" width="4" height="2"/><rect x="494" y="34" width="4" height="2"/><rect x="492" y="30" width="2" height="4"/><rect x="492" y="36" width="2" height="4"/></g><g class="a" fill="#fff" style="animation-delay:-1.06s"><rect x="466" y="16" width="2" height="2"/></g><g class="b" fill="#fff" style="animation-delay:-4.15s"><rect x="636" y="10" width="2" height="2"/><rect x="632" y="10" width="4" height="2"/><rect x="638" y="10" width="4" height="2"/><rect x="636" y="6" width="2" height="4"/><rect x="636" y="12" width="2" height="4"/></g><g class="c" fill="#fff" style="animation-delay:-1.0s"><rect x="776" y="42" width="4" height="4"/></g><g class="a" fill="#fff" style="animation-delay:-0.03s"><rect x="402" y="42" width="2" height="2"/></g><g class="b" fill="#fff" style="animation-delay:-2.58s"><rect x="772" y="32" width="4" height="4"/><rect x="768" y="32" width="4" height="4"/><rect x="776" y="32" width="4" height="4"/><rect x="772" y="28" width="4" height="4"/><rect x="772" y="36" width="4" height="4"/></g><g class="a" fill="#fff" style="animation-delay:-1.45s"><rect x="396" y="28" width="2" height="2"/><rect x="394" y="28" width="2" height="2"/><rect x="398" y="28" width="2" height="2"/><rect x="396" y="26" width="2" height="2"/><rect x="396" y="30" width="2" height="2"/></g><g class="b" fill="#fff" style="animation-delay:-4.1s"><rect x="710" y="42" width="4" height="4"/><rect x="706" y="42" width="4" height="4"/><rect x="714" y="42" width="4" height="4"/><rect x="710" y="38" width="4" height="4"/><rect x="710" y="46" width="4" height="4"/></g><g class="a" fill="#fff" style="animation-delay:-2.45s"><rect x="698" y="36" width="4" height="4"/><rect x="694" y="36" width="4" height="4"/><rect x="702" y="36" width="4" height="4"/><rect x="698" y="32" width="4" height="4"/><rect x="698" y="40" width="4" height="4"/></g><g class="b" fill="#fff" style="animation-delay:-3.9s"><rect x="760" y="26" width="2" height="2"/></g><g class="b" fill="#fff" style="animation-delay:-4.98s"><rect x="526" y="26" width="2" height="2"/><rect x="522" y="26" width="4" height="2"/><rect x="528" y="26" width="4" height="2"/><rect x="526" y="22" width="2" height="4"/><rect x="526" y="28" width="2" height="4"/></g><g class="b" fill="#fff" style="animation-delay:-0.42s"><rect x="822" y="16" width="3" height="3"/><rect x="816" y="16" width="6" height="3"/><rect x="825" y="16" width="6" height="3"/><rect x="822" y="10" width="3" height="6"/><rect x="822" y="19" width="3" height="6"/></g><g class="a" fill="#fff" style="animation-delay:-0.11s"><rect x="446" y="12" width="2" height="2"/><rect x="442" y="12" width="4" height="2"/><rect x="448" y="12" width="4" height="2"/><rect x="446" y="8" width="2" height="4"/><rect x="446" y="14" width="2" height="4"/></g><g class="c" fill="#fff" style="animation-delay:-0.46s"><rect x="694" y="28" width="3" height="3"/><rect x="691" y="28" width="3" height="3"/><rect x="697" y="28" width="3" height="3"/><rect x="694" y="25" width="3" height="3"/><rect x="694" y="31" width="3" height="3"/></g><g class="b" fill="#fff" style="animation-delay:-3.95s"><rect x="678" y="14" width="4" height="4"/><rect x="674" y="14" width="4" height="4"/><rect x="682" y="14" width="4" height="4"/><rect x="678" y="10" width="4" height="4"/><rect x="678" y="18" width="4" height="4"/></g><g class="a" fill="#fff" style="animation-delay:-4.07s"><rect x="678" y="32" width="2" height="2"/><rect x="674" y="32" width="4" height="2"/><rect x="680" y="32" width="4" height="2"/><rect x="678" y="28" width="2" height="4"/><rect x="678" y="34" width="2" height="4"/></g><g class="b" fill="#fff" style="animation-delay:-0.8s"><rect x="748" y="32" width="4" height="4"/><rect x="736" y="32" width="12" height="4"/><rect x="752" y="32" width="12" height="4"/><rect x="748" y="20" width="4" height="12"/><rect x="748" y="36" width="4" height="12"/></g><g fill="#fff" ><rect x="24" y="10" width="4" height="4"/><rect x="28" y="14" width="4" height="4"/><rect x="32" y="18" width="4" height="4"/><rect x="36" y="22" width="4" height="4"/><rect x="32" y="26" width="4" height="4"/><rect x="28" y="30" width="4" height="4"/><rect x="24" y="34" width="4" height="4"/></g><g fill="#fff" ><rect x="72" y="10" width="20" height="4"/><rect x="80" y="14" width="4" height="4"/><rect x="80" y="18" width="4" height="4"/><rect x="80" y="22" width="4" height="4"/><rect x="80" y="26" width="4" height="4"/><rect x="80" y="30" width="4" height="4"/><rect x="80" y="34" width="4" height="4"/></g><g fill="#fff" ><rect x="96" y="10" width="20" height="4"/><rect x="96" y="14" width="4" height="4"/><rect x="96" y="18" width="4" height="4"/><rect x="96" y="22" width="16" height="4"/><rect x="96" y="26" width="4" height="4"/><rect x="96" y="30" width="4" height="4"/><rect x="96" y="34" width="20" height="4"/></g><g fill="#fff" ><rect x="124" y="10" width="12" height="4"/><rect x="120" y="14" width="4" height="4"/><rect x="136" y="14" width="4" height="4"/><rect x="120" y="18" width="4" height="4"/><rect x="120" y="22" width="4" height="4"/><rect x="120" y="26" width="4" height="4"/><rect x="120" y="30" width="4" height="4"/><rect x="136" y="30" width="4" height="4"/><rect x="124" y="34" width="12" height="4"/></g><g fill="#fff" ><rect x="144" y="10" width="4" height="4"/><rect x="160" y="10" width="4" height="4"/><rect x="144" y="14" width="4" height="4"/><rect x="160" y="14" width="4" height="4"/><rect x="144" y="18" width="4" height="4"/><rect x="160" y="18" width="4" height="4"/><rect x="144" y="22" width="20" height="4"/><rect x="144" y="26" width="4" height="4"/><rect x="160" y="26" width="4" height="4"/><rect x="144" y="30" width="4" height="4"/><rect x="160" y="30" width="4" height="4"/><rect x="144" y="34" width="4" height="4"/><rect x="160" y="34" width="4" height="4"/></g><g fill="#fff" ><rect x="196" y="10" width="16" height="4"/><rect x="192" y="14" width="4" height="4"/><rect x="192" y="18" width="4" height="4"/><rect x="196" y="22" width="12" height="4"/><rect x="208" y="26" width="4" height="4"/><rect x="208" y="30" width="4" height="4"/><rect x="192" y="34" width="16" height="4"/></g><g fill="#fff" ><rect x="216" y="10" width="20" height="4"/><rect x="224" y="14" width="4" height="4"/><rect x="224" y="18" width="4" height="4"/><rect x="224" y="22" width="4" height="4"/><rect x="224" y="26" width="4" height="4"/><rect x="224" y="30" width="4" height="4"/><rect x="224" y="34" width="4" height="4"/></g><g fill="#fff" ><rect x="244" y="10" width="12" height="4"/><rect x="240" y="14" width="4" height="4"/><rect x="256" y="14" width="4" height="4"/><rect x="240" y="18" width="4" height="4"/><rect x="256" y="18" width="4" height="4"/><rect x="240" y="22" width="20" height="4"/><rect x="240" y="26" width="4" height="4"/><rect x="256" y="26" width="4" height="4"/><rect x="240" y="30" width="4" height="4"/><rect x="256" y="30" width="4" height="4"/><rect x="240" y="34" width="4" height="4"/><rect x="256" y="34" width="4" height="4"/></g><g fill="#fff" ><rect x="268" y="10" width="12" height="4"/><rect x="264" y="14" width="4" height="4"/><rect x="280" y="14" width="4" height="4"/><rect x="264" y="18" width="4" height="4"/><rect x="264" y="22" width="4" height="4"/><rect x="264" y="26" width="4" height="4"/><rect x="264" y="30" width="4" height="4"/><rect x="280" y="30" width="4" height="4"/><rect x="268" y="34" width="12" height="4"/></g><g fill="#fff" ><rect x="288" y="10" width="4" height="4"/><rect x="304" y="10" width="4" height="4"/><rect x="288" y="14" width="4" height="4"/><rect x="300" y="14" width="4" height="4"/><rect x="288" y="18" width="4" height="4"/><rect x="296" y="18" width="4" height="4"/><rect x="288" y="22" width="8" height="4"/><rect x="288" y="26" width="4" height="4"/><rect x="296" y="26" width="4" height="4"/><rect x="288" y="30" width="4" height="4"/><rect x="300" y="30" width="4" height="4"/><rect x="288" y="34" width="4" height="4"/><rect x="304" y="34" width="4" height="4"/></g><rect class="bl" x="318" y="10" width="12" height="28" fill="#fff"/><line x1="0" y1="52" x2="900" y2="52" stroke="#fff" stroke-width="2" stroke-dasharray="8 8" class="march" opacity=".6"/></svg>